<?xml version="1.0"?>
<svg viewBox="0 0 134 202">
  <g id="layer" stroke="#000000" fill="none" transform="matrix(1,0,0,1,-15.5,-17.6)">
    <path id="nand" stroke-linecap="square" d="M 114 44.1 h -19 v -26 l 19 0 c 7.2 0 13 5.8 13 13 s -5.8 13 -13 13 z m 17 -13 c 0 1.1 -0.9 2 -2 2 s -2 -0.9 -2 -2 s 0.9 -2 2 -2 s 2 0.9 2 2 z h 9 m -54 -6.5 h 9 m -9 13 h 9"/>
    <path id="nor" stroke-linecap="square" d="M 95 77.1 v 0.1 c 2.2 3.8 3.5 8.2 3.5 12.9 c 0 4.7 -1.3 9.1 -3.5 12.9 v 0.1 h 13.5 c 9.6 0 18 -5.2 22.5 -13 c -4.5 -7.8 -12.9 -13 -22.5 -13 h -13.5 z m 40 13 c 0 1.1 -0.9 2 -2 2 s -2 -0.9 -2 -2 s 0.9 -2 2 -2 s 2 0.9 2 2 z m 0 0 h 9 m -55.5 -6.5 h 9 m -9 13 h 9"/>
    <path id="xnor" stroke-linecap="square" d="M 100 136.1 v 0.1 c 2.2 3.8 3.5 8.2 3.5 12.9 c 0 4.7 -1.3 9.1 -3.5 12.9 v 0.1 h 13.5 c 9.6 0 18 -5.2 22.5 -13 c -4.5 -7.8 -12.9 -13 -22.5 -13 h -13.5 z m -5 0.1 c 2.2 3.8 3.5 8.2 3.5 12.9 c 0 4.7 -1.3 9.1 -3.5 12.9 m 45 -12.9 c 0 1.1 -0.9 2 -2 2 s -2 -0.9 -2 -2 c 0 -1.1 0.9 -2 2 -2 s 2 0.9 2 2 z m 0 0 h 9 m -60.5 -6.5 h 9 m -9 13 h 9"/>
    <path id="xor" stroke-linecap="square" d="M 30 136.1 v 0.1 c 2.2 3.8 3.5 8.2 3.5 12.9 c 0 4.7 -1.3 9.1 -3.5 12.9 v 0.1 h 13.5 c 9.6 0 18 -5.2 22.5 -13 c -4.5 -7.8 -12.9 -13 -22.5 -13 h -13.5 z m -5 0.1 c 2.2 3.8 3.5 8.2 3.5 12.9 c 0 4.7 -1.3 9.1 -3.5 12.9 m 41 -12.9 h 9 m -56.5 -6.5 h 9 m -9 13 h 9"/>
    <path id="or" stroke-linecap="square" d="M 25 77.1 v 0.1 c 2.2 3.8 3.5 8.2 3.5 12.9 c 0 4.7 -1.3 9.1 -3.5 12.9 v 0.1 h 13.5 c 9.6 0 18 -5.2 22.5 -13 c -4.5 -7.8 -12.9 -13 -22.5 -13 h -13.5 z m 36 13 h 9 m -51.5 -6.5 h 9 m -9 13 h 9"/>
  </g>
</svg>
